<mxfile host="app.diagrams.net" modified="2023-06-12T18:07:42.875Z" agent="Mozilla/5.0 (Windows NT 10.0; Win64; x64) AppleWebKit/537.36 (KHTML, like Gecko) Chrome/114.0.0.0 Safari/537.36" version="21.3.8" etag="aXqWurcfxF0CjlJd4Bl6" type="github">
  <diagram name="Page-1" id="7YOTs4yzqw7GtxtC2ao0">
    <mxGraphModel>
      <root>
        <mxCell id="0" />
        <mxCell id="1" parent="0" />
      </root>
    </mxGraphModel>
  </diagram>
</mxfile>
